<?xml version="1.0" encoding="utf-8"?>
<!-- Generator: Adobe Illustrator 22.0.1, SVG Export Plug-In . SVG Version: 6.00 Build 0)  -->
<svg version="1.1" id="Layer_1" xmlns="http://www.w3.org/2000/svg" xmlns:xlink="http://www.w3.org/1999/xlink" x="0px" y="0px"
	 viewBox="0 0 569 294" style="enable-background:new 0 0 569 294;" xml:space="preserve">
<style type="text/css">
	.st0{fill:#FFFFFF;stroke:#000000;stroke-miterlimit:10;}
	.st1{fill:none;stroke:#000000;stroke-miterlimit:10;}
	.st2{font-family:'ArialMT';}
	.st3{font-size:12px;}
	.st4{font-size:7px;}
	.st5{fill:none;stroke:#000000;stroke-miterlimit:10;stroke-dasharray:13.4107,13.4107;}
	.st6{fill:none;stroke:#000000;stroke-miterlimit:10;stroke-dasharray:10.075,10.075;}
	.st7{font-family:'CourierNewPSMT';}
	.st8{font-size:45px;}
</style>
<rect class="st0" width="569" height="294"/>
<g>
	<rect x="46.2" y="43.2" class="st1" width="112.4" height="237.3"/>
	<text transform="matrix(1 0 0 1 58.0566 83.918)" class="st2 st3">Arduino</text>
	<text transform="matrix(1 0 0 1 58.0566 98.318)" class="st2 st3">Mega 2650</text>
</g>
<g>
	<rect x="193.1" y="43.2" class="st1" width="62.7" height="147.5"/>
	<text transform="matrix(1 0 0 1 200.4292 75.4434)" class="st2 st3">DMX</text>
	<text transform="matrix(1 0 0 1 200.4292 89.8434)" class="st2 st3">Shield</text>
</g>
<g>
	<rect x="409.2" y="49.2" class="st1" width="149.7" height="232.2"/>
	<text transform="matrix(1 0 0 1 423.8418 71.212)" class="st2 st3">Nextion Display</text>
</g>
<line class="st1" x1="158.6" y1="59.1" x2="193.1" y2="59.1"/>
<line class="st1" x1="158.6" y1="65.8" x2="193.1" y2="65.8"/>
<line class="st1" x1="158.6" y1="72.6" x2="193.1" y2="72.6"/>
<line class="st1" x1="158.6" y1="79.4" x2="193.1" y2="79.4"/>
<line class="st1" x1="158.6" y1="158.5" x2="193.1" y2="158.5"/>
<line class="st1" x1="158.6" y1="165.3" x2="193.1" y2="165.3"/>
<line class="st1" x1="158.6" y1="172.1" x2="193.1" y2="172.1"/>
<line class="st1" x1="158.6" y1="178.8" x2="193.1" y2="178.8"/>
<text transform="matrix(6.123234e-17 -1 1 6.123234e-17 173.4429 149.6318)" class="st2 st3">DMX Shield </text>
<text transform="matrix(6.123234e-17 -1 1 6.123234e-17 187.8429 149.6318)" class="st2 st3">Header Pins</text>
<circle cx="226.8" cy="171.6" r="1.1"/>
<circle cx="226.8" cy="177.5" r="1.1"/>
<line class="st1" x1="158.6" y1="213.5" x2="226.8" y2="213.5"/>
<line class="st1" x1="226.8" y1="177.5" x2="226.8" y2="213.5"/>
<line class="st1" x1="158.6" y1="221.8" x2="231.5" y2="221.8"/>
<line class="st1" x1="226.8" y1="171.6" x2="231.5" y2="171.6"/>
<line class="st1" x1="231.5" y1="221.8" x2="231.5" y2="171.6"/>
<text transform="matrix(1 0 0 1 215.875 172.75)" class="st2 st4">TX</text>
<text transform="matrix(1 0 0 1 215.875 181.15)" class="st2 st4">RX</text>
<text transform="matrix(1 0 0 1 144.6831 215.5566)" class="st2 st4">TX1</text>
<text transform="matrix(1 0 0 1 144.3831 223.9566)" class="st2 st4">RX1</text>
<text transform="matrix(1 0 0 1 144.6831 240.7566)" class="st2 st4">TX2</text>
<text transform="matrix(1 0 0 1 144.3831 249.1566)" class="st2 st4">RX2</text>
<g>
	<g>
		<g>
			<polyline class="st1" points="377.7,179.9 377.7,185.9 371.7,185.9 			"/>
			<line class="st5" x1="358.3" y1="185.9" x2="284.5" y2="185.9"/>
			<polyline class="st1" points="277.8,185.9 271.8,185.9 271.8,179.9 			"/>
			<line class="st6" x1="271.8" y1="169.9" x2="271.8" y2="134.6"/>
			<polyline class="st1" points="271.8,129.6 271.8,123.6 277.8,123.6 			"/>
			<line class="st5" x1="291.2" y1="123.6" x2="365" y2="123.6"/>
			<polyline class="st1" points="371.7,123.6 377.7,123.6 377.7,129.6 			"/>
			<line class="st6" x1="377.7" y1="139.6" x2="377.7" y2="174.9"/>
		</g>
	</g>
	<text transform="matrix(1 0 0 1 281.455 130.5523)" class="st2 st4">Breadboard</text>
	<rect x="281.5" y="140.1" class="st1" width="26.1" height="31.3"/>
	<text transform="matrix(1 0 0 1 287.5561 148.9273)" class="st2 st4">Vout</text>
	<text transform="matrix(1 0 0 1 287.6561 157.3273)" class="st2 st4">GND</text>
	<text transform="matrix(1 0 0 1 289.7561 165.7273)" class="st2 st4">Vin</text>
</g>
<rect x="358.5" y="144.3" class="st1" width="14.5" height="22.6"/>
<rect x="324.8" y="132.9" class="st1" width="16.7" height="38.4"/>
<text transform="matrix(1 0 0 1 361.0023 143)" class="st2 st4">JP1</text>
<text transform="matrix(1 0 0 1 360.3023 151.4)" class="st2 st4">RX2</text>
<text transform="matrix(1 0 0 1 360.4023 159.8)" class="st2 st4">TX2</text>
<text transform="matrix(1 0 0 1 329.6986 143.6504)" class="st2 st4">+5</text>
<text transform="matrix(1 0 0 1 329.7986 152.0504)" class="st2 st4">TX</text>
<text transform="matrix(1 0 0 1 329.6986 160.4504)" class="st2 st4">RX</text>
<text transform="matrix(1 0 0 1 326.6986 168.8504)" class="st2 st4">GND</text>
<text transform="matrix(1 0 0 1 328.5986 177.2504)" class="st2 st4">JP2</text>
<line class="st1" x1="282.3" y1="154.7" x2="255.8" y2="154.7"/>
<line class="st1" x1="281.5" y1="164.3" x2="255.8" y2="164.3"/>
<line class="st1" x1="307.6" y1="146.4" x2="324.8" y2="142.3"/>
<line class="st1" x1="307.6" y1="155.6" x2="324.8" y2="166.9"/>
<line class="st1" x1="341.5" y1="149.9" x2="358.5" y2="149.9"/>
<line class="st1" x1="341.5" y1="158.4" x2="358.5" y2="158.4"/>
<line class="st1" x1="158.6" y1="238.4" x2="384.8" y2="238.4"/>
<line class="st1" x1="373" y1="157.6" x2="384.8" y2="157.6"/>
<line class="st1" x1="384.8" y1="157.6" x2="384.8" y2="238.4"/>
<line class="st1" x1="158.6" y1="246.6" x2="393.4" y2="246.6"/>
<line class="st1" x1="373" y1="149.9" x2="393.4" y2="149.9"/>
<line class="st1" x1="393.4" y1="149.7" x2="393.4" y2="246.6"/>
<line class="st1" x1="327.9" y1="89.3" x2="327.9" y2="132.9"/>
<line class="st1" x1="409.2" y1="100" x2="338.8" y2="100"/>
<line class="st1" x1="338.4" y1="99.7" x2="338.4" y2="132.9"/>
<line class="st1" x1="409.2" y1="89" x2="327.9" y2="89.6"/>
<text transform="matrix(1 0 0 1 350.0142 96.75)" class="st2 st4">Nextion Cable</text>
<text transform="matrix(1 0 0 1 424.4604 83.8438)" class="st2 st4">+5</text>
<text transform="matrix(1 0 0 1 424.5604 92.2438)" class="st2 st4">TX</text>
<text transform="matrix(1 0 0 1 424.4604 100.6438)" class="st2 st4">RX</text>
<text transform="matrix(1 0 0 1 421.4604 109.0438)" class="st2 st4">GND</text>
<text transform="matrix(1 0 0 1 401.123 104.5304)" class="st7 st8">{</text>
<line class="st1" x1="19.1" y1="18.8" x2="77.5" y2="18.8"/>
<line class="st1" x1="77.5" y1="43.2" x2="77.5" y2="18.8"/>
<line class="st1" x1="19.1" y1="18.8" x2="13.6" y2="13.3"/>
<line class="st1" x1="13.8" y1="23.4" x2="19.1" y2="18.8"/>
<text transform="matrix(1 0 0 1 21.1992 16)" class="st2 st3">9V</text>
<text transform="matrix(1 0 0 1 69.418 55.5)" class="st2 st3">Vin</text>
<text transform="matrix(1 0 0 1 239.46 157)" class="st2 st4">GND</text>
<text transform="matrix(1 0 0 1 243.86 165.4)" class="st2 st4">Vin</text>
<text transform="matrix(1 0 0 1 195.0607 161.2188)" class="st2 st4">GND</text>
<text transform="matrix(1 0 0 1 195.0607 169.6188)" class="st2 st4">Vin</text>
<text transform="matrix(1 0 0 1 143.46 159.75)" class="st2 st4">GND</text>
<text transform="matrix(1 0 0 1 147.86 168.15)" class="st2 st4">Vin</text>
</svg>
